<svg xmlns="http://www.w3.org/2000/svg" xmlns:xlink="http://www.w3.org/1999/xlink" width="500" zoomAndPan="magnify" viewBox="0 0 375 374.999991" height="500" preserveAspectRatio="xMidYMid meet" version="1.2"><defs><clipPath id="20edb2dc01"><path d="M 66 170 L 85 170 L 85 217 L 66 217 Z M 66 170 "/></clipPath><clipPath id="7e0dc9faf8"><path d="M 58.960938 161.058594 L 220.328125 226.148438 L 178.523438 329.785156 L 17.15625 264.695312 Z M 58.960938 161.058594 "/></clipPath><clipPath id="268889728d"><path d="M 220.089844 226.054688 L 58.722656 160.960938 L 16.917969 264.597656 L 178.285156 329.691406 Z M 220.089844 226.054688 "/></clipPath><clipPath id="5080ce0d15"><path d="M 53 163 L 180 163 L 180 326 L 53 326 Z M 53 163 "/></clipPath><clipPath id="9c8d0d7657"><path d="M 58.960938 161.058594 L 220.328125 226.148438 L 178.523438 329.785156 L 17.15625 264.695312 Z M 58.960938 161.058594 "/></clipPath><clipPath id="6780edc5fe"><path d="M 220.089844 226.054688 L 58.722656 160.960938 L 16.917969 264.597656 L 178.285156 329.691406 Z M 220.089844 226.054688 "/></clipPath><clipPath id="d256ca1423"><path d="M 77 180 L 87 180 L 87 216 L 77 216 Z M 77 180 "/></clipPath><clipPath id="eb977d2e73"><path d="M 58.960938 161.058594 L 220.328125 226.148438 L 178.523438 329.785156 L 17.15625 264.695312 Z M 58.960938 161.058594 "/></clipPath><clipPath id="0d0e29c6ad"><path d="M 220.089844 226.054688 L 58.722656 160.960938 L 16.917969 264.597656 L 178.285156 329.691406 Z M 220.089844 226.054688 "/></clipPath><clipPath id="8c4dcdf381"><path d="M 28 87 L 213 87 L 213 269 L 28 269 Z M 28 87 "/></clipPath><clipPath id="d974b37235"><path d="M 59.917969 42.566406 L 222.367188 102.773438 L 156.945312 279.292969 L -5.503906 219.082031 Z M 59.917969 42.566406 "/></clipPath><clipPath id="2896feb1b7"><path d="M 59.917969 42.566406 L 222.367188 102.773438 L 156.945312 279.292969 L -5.503906 219.082031 Z M 59.917969 42.566406 "/></clipPath></defs><g id="2d226f33de"><g clip-rule="nonzero" clip-path="url(#20edb2dc01)"><g clip-rule="nonzero" clip-path="url(#7e0dc9faf8)"><g clip-rule="nonzero" clip-path="url(#268889728d)"><path style=" stroke:none;fill-rule:nonzero;fill:#d49b82;fill-opacity:1;" d="M 66.191406 188.605469 C 66.988281 179.550781 70.277344 174.261719 73.632812 171.195312 C 75.585938 169.40625 78.542969 171.519531 77.523438 173.964844 C 72.355469 186.3125 76.917969 201.796875 84.433594 216.125 C 76.5625 207.570312 69.707031 198.125 66.191406 188.605469 "/></g></g></g><g clip-rule="nonzero" clip-path="url(#5080ce0d15)"><g clip-rule="nonzero" clip-path="url(#9c8d0d7657)"><g clip-rule="nonzero" clip-path="url(#6780edc5fe)"><path style=" stroke:none;fill-rule:nonzero;fill:#e67770;fill-opacity:1;" d="M 160.773438 249.035156 C 151.214844 241.457031 124.300781 222.066406 123.039062 209.328125 C 121.78125 196.59375 100.980469 213.394531 125.507812 240.992188 C 125.507812 240.992188 54.257812 216.71875 62.894531 165.910156 C 63.386719 162.996094 58.554688 162.496094 57.601562 165.292969 C 53.480469 177.40625 39.515625 210.027344 100.722656 258.65625 C 142.890625 292.15625 160.785156 293.171875 167.808594 325.324219 C 167.808594 325.324219 198.695312 279.09375 160.773438 249.035156 "/></g></g></g><g clip-rule="nonzero" clip-path="url(#d256ca1423)"><g clip-rule="nonzero" clip-path="url(#eb977d2e73)"><g clip-rule="nonzero" clip-path="url(#0d0e29c6ad)"><path style=" stroke:none;fill-rule:nonzero;fill:#d49b82;fill-opacity:1;" d="M 82.894531 181.191406 C 84.96875 179.546875 87.773438 181.859375 86.578125 184.226562 C 82.101562 193.109375 82.867188 204.097656 86.210938 215.242188 C 81.433594 206.171875 77.921875 196.734375 77.378906 188.027344 C 79 184.914062 80.957031 182.722656 82.894531 181.191406 "/></g></g></g><g clip-rule="nonzero" clip-path="url(#8c4dcdf381)"><g clip-rule="nonzero" clip-path="url(#d974b37235)"><g clip-rule="nonzero" clip-path="url(#2896feb1b7)"><path style=" stroke:none;fill-rule:nonzero;fill:#e67770;fill-opacity:1;" d="M 123.777344 112.589844 C 124.609375 111.632812 125.386719 110.8125 126.121094 109.898438 C 133.839844 101.449219 142.527344 94.226562 153.636719 90.511719 C 164.742188 86.796875 177.691406 86.21875 189.363281 91.648438 C 196.78125 95.113281 202.492188 99.761719 206.378906 105.710938 C 208.414062 108.757812 213.625 116.464844 212.554688 126.191406 C 212.394531 127.640625 212.105469 129.0625 211.683594 130.457031 C 211.839844 129.472656 211.945312 128.480469 211.992188 127.488281 C 212.214844 121.554688 209.894531 117.136719 208.828125 114.683594 C 205.773438 107.777344 200.558594 102.207031 193.855469 97.667969 C 178.136719 86.9375 158.195312 88.878906 144.175781 98.316406 C 136.980469 103.121094 130.753906 108.960938 125.5 115.839844 C 124.222656 117.578125 123.421875 117.601562 122.046875 115.980469 C 114.964844 107.980469 106.851562 101.492188 96.738281 97.824219 C 79.1875 91.394531 63.488281 94.910156 49.722656 107.292969 C 39.03125 116.933594 34.25 129.402344 33.359375 143.546875 C 32.46875 157.691406 35.160156 171.980469 41.054688 185.316406 C 45.644531 195.5625 52.300781 204.277344 59.433594 212.777344 C 69.925781 225.445312 81.585938 236.886719 95.191406 246.277344 L 123.226562 265.609375 L 126.875 268.148438 C 126.875 268.148438 105.140625 257.640625 85.289062 242.6875 C 75.542969 235.398438 66.601562 227.230469 58.457031 218.1875 C 52.074219 211.078125 45.8125 203.851562 40.972656 195.570312 C 30.496094 177.527344 25.949219 158.203125 29.125 137.46875 C 32.070312 117.996094 42.363281 103.457031 60.335938 95.089844 C 75.902344 87.882812 91.289062 89.476562 106.027344 97.941406 C 112.210938 101.554688 117.703125 106.015625 122.503906 111.328125 Z M 123.777344 112.589844 "/></g></g></g><g style="fill:#e67770;fill-opacity:1;"><g transform="translate(78.400663, 196.175802)"><path style="stroke:none" d="M 23.9375 0 L 1.84375 -58.796875 L 9.484375 -58.796875 L 28.0625 -7.46875 L 46.78125 -58.796875 L 54.265625 -58.796875 L 32.171875 0 Z M 23.9375 0 "/></g></g><g style="fill:#e67770;fill-opacity:1;"><g transform="translate(134.504885, 196.175802)"><path style="stroke:none" d="M 10.078125 -50.90625 C 8.679688 -50.90625 7.519531 -51.363281 6.59375 -52.28125 C 5.664062 -53.207031 5.203125 -54.375 5.203125 -55.78125 C 5.203125 -57.125 5.664062 -58.242188 6.59375 -59.140625 C 7.519531 -60.035156 8.679688 -60.484375 10.078125 -60.484375 C 11.421875 -60.484375 12.566406 -60.035156 13.515625 -59.140625 C 14.472656 -58.242188 14.953125 -57.125 14.953125 -55.78125 C 14.953125 -54.375 14.472656 -53.207031 13.515625 -52.28125 C 12.566406 -51.363281 11.421875 -50.90625 10.078125 -50.90625 Z M 6.546875 0 L 6.546875 -41.65625 L 13.609375 -41.65625 L 13.609375 0 Z M 6.546875 0 "/></g></g><g style="fill:#e67770;fill-opacity:1;"><g transform="translate(154.578106, 196.175802)"><path style="stroke:none" d="M 22.265625 0 C 18.453125 0 15.453125 -0.921875 13.265625 -2.765625 C 11.085938 -4.617188 10 -7.953125 10 -12.765625 L 10 -35.703125 L 2.765625 -35.703125 L 2.765625 -41.65625 L 10 -41.65625 L 10.921875 -51.65625 L 17.046875 -51.65625 L 17.046875 -41.65625 L 29.3125 -41.65625 L 29.3125 -35.703125 L 17.046875 -35.703125 L 17.046875 -12.765625 C 17.046875 -10.128906 17.578125 -8.347656 18.640625 -7.421875 C 19.710938 -6.503906 21.59375 -6.046875 24.28125 -6.046875 L 28.640625 -6.046875 L 28.640625 0 Z M 22.265625 0 "/></g></g><g style="fill:#e67770;fill-opacity:1;"><g transform="translate(187.081602, 196.175802)"><path style="stroke:none" d="M 19.65625 1.015625 C 16.1875 1.015625 13.300781 0.425781 11 -0.75 C 8.707031 -1.925781 7 -3.492188 5.875 -5.453125 C 4.757812 -7.421875 4.203125 -9.550781 4.203125 -11.84375 C 4.203125 -16.101562 5.820312 -19.378906 9.0625 -21.671875 C 12.3125 -23.960938 16.738281 -25.109375 22.34375 -25.109375 L 33.59375 -25.109375 L 33.59375 -25.625 C 33.59375 -29.257812 32.640625 -32.015625 30.734375 -33.890625 C 28.835938 -35.765625 26.289062 -36.703125 23.09375 -36.703125 C 20.351562 -36.703125 17.988281 -36.015625 16 -34.640625 C 14.007812 -33.273438 12.765625 -31.273438 12.265625 -28.640625 L 5.046875 -28.640625 C 5.316406 -31.671875 6.332031 -34.21875 8.09375 -36.28125 C 9.863281 -38.351562 12.0625 -39.9375 14.6875 -41.03125 C 17.320312 -42.125 20.125 -42.671875 23.09375 -42.671875 C 28.925781 -42.671875 33.3125 -41.113281 36.25 -38 C 39.1875 -34.894531 40.65625 -30.769531 40.65625 -25.625 L 40.65625 0 L 34.359375 0 L 33.9375 -7.46875 C 32.757812 -5.125 31.035156 -3.125 28.765625 -1.46875 C 26.503906 0.1875 23.46875 1.015625 19.65625 1.015625 Z M 20.75 -4.953125 C 23.4375 -4.953125 25.742188 -5.648438 27.671875 -7.046875 C 29.609375 -8.453125 31.078125 -10.273438 32.078125 -12.515625 C 33.085938 -14.753906 33.59375 -17.109375 33.59375 -19.578125 L 33.59375 -19.65625 L 22.9375 -19.65625 C 18.789062 -19.65625 15.863281 -18.941406 14.15625 -17.515625 C 12.445312 -16.085938 11.59375 -14.3125 11.59375 -12.1875 C 11.59375 -10 12.390625 -8.242188 13.984375 -6.921875 C 15.578125 -5.609375 17.832031 -4.953125 20.75 -4.953125 Z M 20.75 -4.953125 "/></g></g><g style="fill:#e67770;fill-opacity:1;"><g transform="translate(232.519301, 196.175802)"><path style="stroke:none" d="M 6.21875 0 L 6.21875 -58.796875 L 13.265625 -58.796875 L 13.265625 -5.625 L 40.65625 -5.625 L 40.65625 0 Z M 6.21875 0 "/></g></g><g style="fill:#e67770;fill-opacity:1;"><g transform="translate(276.613189, 196.175802)"><path style="stroke:none" d="M 19.65625 1.015625 C 16.1875 1.015625 13.300781 0.425781 11 -0.75 C 8.707031 -1.925781 7 -3.492188 5.875 -5.453125 C 4.757812 -7.421875 4.203125 -9.550781 4.203125 -11.84375 C 4.203125 -16.101562 5.820312 -19.378906 9.0625 -21.671875 C 12.3125 -23.960938 16.738281 -25.109375 22.34375 -25.109375 L 33.59375 -25.109375 L 33.59375 -25.625 C 33.59375 -29.257812 32.640625 -32.015625 30.734375 -33.890625 C 28.835938 -35.765625 26.289062 -36.703125 23.09375 -36.703125 C 20.351562 -36.703125 17.988281 -36.015625 16 -34.640625 C 14.007812 -33.273438 12.765625 -31.273438 12.265625 -28.640625 L 5.046875 -28.640625 C 5.316406 -31.671875 6.332031 -34.21875 8.09375 -36.28125 C 9.863281 -38.351562 12.0625 -39.9375 14.6875 -41.03125 C 17.320312 -42.125 20.125 -42.671875 23.09375 -42.671875 C 28.925781 -42.671875 33.3125 -41.113281 36.25 -38 C 39.1875 -34.894531 40.65625 -30.769531 40.65625 -25.625 L 40.65625 0 L 34.359375 0 L 33.9375 -7.46875 C 32.757812 -5.125 31.035156 -3.125 28.765625 -1.46875 C 26.503906 0.1875 23.46875 1.015625 19.65625 1.015625 Z M 20.75 -4.953125 C 23.4375 -4.953125 25.742188 -5.648438 27.671875 -7.046875 C 29.609375 -8.453125 31.078125 -10.273438 32.078125 -12.515625 C 33.085938 -14.753906 33.59375 -17.109375 33.59375 -19.578125 L 33.59375 -19.65625 L 22.9375 -19.65625 C 18.789062 -19.65625 15.863281 -18.941406 14.15625 -17.515625 C 12.445312 -16.085938 11.59375 -14.3125 11.59375 -12.1875 C 11.59375 -10 12.390625 -8.242188 13.984375 -6.921875 C 15.578125 -5.609375 17.832031 -4.953125 20.75 -4.953125 Z M 20.75 -4.953125 "/></g></g><g style="fill:#e67770;fill-opacity:1;"><g transform="translate(322.0509, 196.175802)"><path style="stroke:none" d="M 5.796875 0 L 5.796875 -41.65625 L 12.1875 -41.65625 L 12.765625 -33.6875 C 14.054688 -36.425781 16.015625 -38.609375 18.640625 -40.234375 C 21.273438 -41.859375 24.523438 -42.671875 28.390625 -42.671875 L 28.390625 -35.28125 L 26.453125 -35.28125 C 23.992188 -35.28125 21.726562 -34.84375 19.65625 -33.96875 C 17.582031 -33.101562 15.929688 -31.632812 14.703125 -29.5625 C 13.472656 -27.488281 12.859375 -24.632812 12.859375 -21 L 12.859375 0 Z M 5.796875 0 "/></g></g><g style="fill:#d49b82;fill-opacity:1;"><g transform="translate(174.998314, 225.651182)"><path style="stroke:none" d="M 9.421875 0 L 7.65625 0 L 7.65625 -7.515625 L 3.34375 -7.515625 L 3.34375 0 L 1.578125 0 L 1.578125 -15.15625 L 3.34375 -15.15625 L 3.34375 -9.0625 L 7.65625 -9.0625 L 7.65625 -15.15625 L 9.421875 -15.15625 Z M 9.421875 0 "/></g></g><g style="fill:#d49b82;fill-opacity:1;"><g transform="translate(185.99636, 225.651182)"><path style="stroke:none" d=""/></g></g><g style="fill:#d49b82;fill-opacity:1;"><g transform="translate(196.994406, 225.651182)"><path style="stroke:none" d="M 5.5 -15.453125 C 6.957031 -15.453125 8.0625 -14.785156 8.8125 -13.453125 C 9.570312 -12.128906 9.953125 -10.171875 9.953125 -7.578125 C 9.953125 -5.015625 9.578125 -3.0625 8.828125 -1.71875 C 8.085938 -0.375 6.976562 0.296875 5.5 0.296875 C 4.039062 0.296875 2.929688 -0.367188 2.171875 -1.703125 C 1.421875 -3.035156 1.046875 -4.992188 1.046875 -7.578125 C 1.046875 -10.171875 1.421875 -12.128906 2.171875 -13.453125 C 2.929688 -14.785156 4.039062 -15.453125 5.5 -15.453125 Z M 5.5 -1.25 C 7.21875 -1.25 8.078125 -3.359375 8.078125 -7.578125 C 8.078125 -9.742188 7.863281 -11.335938 7.4375 -12.359375 C 7.007812 -13.390625 6.363281 -13.90625 5.5 -13.90625 C 3.78125 -13.90625 2.921875 -11.796875 2.921875 -7.578125 C 2.921875 -5.390625 3.132812 -3.785156 3.5625 -2.765625 C 3.988281 -1.753906 4.632812 -1.25 5.5 -1.25 Z M 5.5 -1.25 "/></g></g><g style="fill:#d49b82;fill-opacity:1;"><g transform="translate(207.992452, 225.651182)"><path style="stroke:none" d=""/></g></g><g style="fill:#d49b82;fill-opacity:1;"><g transform="translate(218.990498, 225.651182)"><path style="stroke:none" d="M 9.890625 0 L 8.1875 0 L 8.1875 -13 L 6.34375 -6.78125 L 4.65625 -6.78125 L 2.8125 -13 L 2.8125 0 L 1.125 0 L 1.125 -15.15625 L 3.40625 -15.15625 L 5.5 -8.25 L 7.59375 -15.15625 L 9.890625 -15.15625 Z M 9.890625 0 "/></g></g><g style="fill:#d49b82;fill-opacity:1;"><g transform="translate(229.988545, 225.651182)"><path style="stroke:none" d=""/></g></g><g style="fill:#d49b82;fill-opacity:1;"><g transform="translate(240.986591, 225.651182)"><path style="stroke:none" d="M 9.578125 0 L 1.65625 0 L 1.65625 -15.15625 L 9.5 -15.15625 L 9.5 -13.625 L 3.40625 -13.625 L 3.40625 -8.921875 L 9.265625 -8.921875 L 9.265625 -7.390625 L 3.40625 -7.390625 L 3.40625 -1.53125 L 9.578125 -1.53125 Z M 9.578125 0 "/></g></g><g style="fill:#d49b82;fill-opacity:1;"><g transform="translate(251.990496, 225.651182)"><path style="stroke:none" d=""/></g></g><g style="fill:#d49b82;fill-opacity:1;"><g transform="translate(262.988542, 225.651182)"><path style="stroke:none" d=""/></g></g><g style="fill:#d49b82;fill-opacity:1;"><g transform="translate(273.986589, 225.651182)"><path style="stroke:none" d="M 10.40625 -0.953125 C 9.300781 -0.117188 8.070312 0.296875 6.71875 0.296875 C 4.914062 0.296875 3.535156 -0.382812 2.578125 -1.75 C 1.617188 -3.113281 1.140625 -5.054688 1.140625 -7.578125 C 1.140625 -10.015625 1.601562 -11.9375 2.53125 -13.34375 C 3.46875 -14.75 4.863281 -15.453125 6.71875 -15.453125 C 8.070312 -15.453125 9.21875 -15.109375 10.15625 -14.421875 L 9.59375 -13.046875 C 8.664062 -13.617188 7.707031 -13.90625 6.71875 -13.90625 C 4.25 -13.90625 3.015625 -11.796875 3.015625 -7.578125 C 3.015625 -3.359375 4.25 -1.25 6.71875 -1.25 C 7.675781 -1.25 8.722656 -1.609375 9.859375 -2.328125 Z M 10.40625 -0.953125 "/></g></g><g style="fill:#d49b82;fill-opacity:1;"><g transform="translate(284.984635, 225.651182)"><path style="stroke:none" d=""/></g></g><g style="fill:#d49b82;fill-opacity:1;"><g transform="translate(295.982681, 225.651182)"><path style="stroke:none" d="M 10.84375 0 L 8.953125 0 L 7.546875 -5.3125 L 3.359375 -5.3125 L 1.984375 0 L 0.15625 0 L 4.453125 -15.15625 L 6.546875 -15.15625 Z M 7.171875 -6.84375 L 5.5 -13.109375 L 3.828125 -6.84375 Z M 7.171875 -6.84375 "/></g></g><g style="fill:#d49b82;fill-opacity:1;"><g transform="translate(306.980727, 225.651182)"><path style="stroke:none" d=""/></g></g><g style="fill:#d49b82;fill-opacity:1;"><g transform="translate(317.978773, 225.651182)"><path style="stroke:none" d="M 10.75 0 L 8.8125 0 L 5.109375 -6.796875 L 3.34375 -6.796875 L 3.34375 0 L 1.578125 0 L 1.578125 -15.15625 L 5 -15.15625 C 6.445312 -15.15625 7.601562 -14.789062 8.46875 -14.0625 C 9.34375 -13.332031 9.78125 -12.328125 9.78125 -11.046875 C 9.78125 -10.078125 9.519531 -9.238281 9 -8.53125 C 8.488281 -7.832031 7.765625 -7.332031 6.828125 -7.03125 Z M 3.34375 -8.34375 L 4.828125 -8.34375 C 6.890625 -8.34375 7.921875 -9.207031 7.921875 -10.9375 C 7.921875 -11.75 7.640625 -12.398438 7.078125 -12.890625 C 6.515625 -13.378906 5.789062 -13.625 4.90625 -13.625 L 3.34375 -13.625 Z M 3.34375 -8.34375 "/></g></g><g style="fill:#d49b82;fill-opacity:1;"><g transform="translate(328.976819, 225.651182)"><path style="stroke:none" d=""/></g></g><g style="fill:#d49b82;fill-opacity:1;"><g transform="translate(339.974865, 225.651182)"><path style="stroke:none" d="M 9.578125 0 L 1.65625 0 L 1.65625 -15.15625 L 9.5 -15.15625 L 9.5 -13.625 L 3.40625 -13.625 L 3.40625 -8.921875 L 9.265625 -8.921875 L 9.265625 -7.390625 L 3.40625 -7.390625 L 3.40625 -1.53125 L 9.578125 -1.53125 Z M 9.578125 0 "/></g></g></g></svg>